<svg width="1600" height="1200" viewBox="0 0 1600 1200" fill="none" xmlns="http://www.w3.org/2000/svg">
<line x1="0.872041" y1="282.517" x2="1069.87" y2="-0.483354" stroke="#98CBF6"/>
<line x1="181.517" y1="1200.13" x2="0.769444" y2="532.062" stroke="#98CBF6"/>
<line x1="535.871" y1="1199.52" x2="1600.87" y2="915.517" stroke="#98CBF6"/>
<line x1="1419.48" y1="-0.130708" x2="1601.73" y2="672.801" stroke="#98CBF6"/>
<g clip-path="url(#clip0_0_1)">
<path d="M161.874 227.815C161.627 227.65 161.422 227.524 161.229 227.386C156.613 224.097 151.998 220.808 147.382 217.516C143.963 215.079 140.551 212.628 137.12 210.208C135.085 208.772 134.082 206.845 134.109 204.357C134.126 202.782 134.084 201.208 134.074 199.634C134.074 199.505 134.109 199.377 134.138 199.175C134.321 199.281 134.45 199.343 134.564 199.424C138.242 202.058 141.923 204.697 145.6 207.333C150.151 210.595 154.705 213.855 159.248 217.124C160.888 218.304 161.852 219.921 161.953 221.926C162.049 223.809 161.96 225.698 161.948 227.586C161.951 227.635 161.921 227.684 161.874 227.815Z" fill="#202020"/>
<path d="M134.047 210.036C134.499 210.364 134.845 210.615 135.192 210.869C138.544 213.33 141.891 215.799 145.251 218.25C147.051 219.561 147.951 221.337 148.012 223.528C148.059 225.238 148.025 226.95 148.022 228.66C148.022 228.751 147.998 228.842 147.975 229.002C147.827 228.929 147.706 228.887 147.607 228.815C144.865 226.832 142.124 224.846 139.384 222.86C138.482 222.207 137.572 221.562 136.68 220.894C134.922 219.576 134.025 217.812 134.007 215.619C133.993 213.963 134.005 212.305 134.007 210.649C134.007 210.492 134.025 210.334 134.047 210.036Z" fill="#202020"/>
<path d="M161.837 216.898C161.718 216.816 161.597 216.74 161.483 216.656C157.904 214.062 154.321 211.475 150.754 208.87C148.942 207.547 148.025 205.744 148.007 203.502C147.995 201.858 148.005 200.215 148.005 198.572C148.005 198.411 148.005 198.251 148.005 198C148.198 198.103 148.331 198.153 148.443 198.234C152.079 200.905 155.728 203.566 159.347 206.261C161.078 207.55 161.97 209.299 161.963 211.477C161.956 213.106 161.96 214.737 161.96 216.365C161.96 216.523 161.96 216.681 161.96 216.841C161.918 216.858 161.876 216.878 161.837 216.898Z" fill="#202020"/>
</g>
<defs>
<clipPath id="clip0_0_1">
<rect width="28" height="31" fill="white" transform="translate(134 198)"/>
</clipPath>
</defs>
</svg>



                  