<svg width="48" height="48" viewBox="0 0 48 48" fill="none" xmlns="http://www.w3.org/2000/svg">
<circle id="circle" cx="24" cy="24" r="24" fill="#F2F5FA"/>
<g filter="url(#filter0_d_4_209)">
<path d="M14.5 29.5H32.5L29 26.5V18.5L26.5 14.5H20.5L17.5 18.5V26.5L14.5 29.5Z" stroke="#020B2A" stroke-width="2" shape-rendering="crispEdges"/>
</g>
<circle id="circle" cx="29" cy="16.5" r="4.5" fill="white"/>
<circle id="circle2" cx="29" cy="16.5" r="3.5" fill="#FF5E5E"/>
<mask id="path-5-inside-1_4_209" fill="white">
<path d="M23.5 32.5L22 31.5V30H25.5V31.5L23.5 32.5Z"/>
</mask>
<path id="path" d="M22 31.5H19V33.1056L20.3359 33.9962L22 31.5ZM23.5 32.5L21.8359 34.9962L23.2845 35.9619L24.8416 35.1833L23.5 32.5ZM25.5 31.5L26.8416 34.1833L28.5 33.3541V31.5H25.5ZM25.5 30H28.5V27H25.5V30ZM22 30V27H19V30H22ZM20.3359 33.9962L21.8359 34.9962L25.1641 30.0038L23.6641 29.0038L20.3359 33.9962ZM24.8416 35.1833L26.8416 34.1833L24.1584 28.8167L22.1584 29.8167L24.8416 35.1833ZM28.5 31.5V30H22.5V31.5H28.5ZM25.5 27H22V33H25.5V27ZM19 30V31.5H25V30H19Z" fill="#020B2A" mask="url(#path-5-inside-1_4_209)"/>
<defs>
<filter id="filter0_d_4_209" x="8.08582" y="13.5" width="31.1174" height="25" filterUnits="userSpaceOnUse" color-interpolation-filters="sRGB">
<feFlood flood-opacity="0" result="BackgroundImageFix"/>
<feColorMatrix in="SourceAlpha" type="matrix" values="0 0 0 0 0 0 0 0 0 0 0 0 0 0 0 0 0 0 127 0" result="hardAlpha"/>
<feOffset dy="4"/>
<feGaussianBlur stdDeviation="2"/>
<feComposite in2="hardAlpha" operator="out"/>
<feColorMatrix type="matrix" values="0 0 0 0 0 0 0 0 0 0 0 0 0 0 0 0 0 0 0.25 0"/>
<feBlend mode="normal" in2="BackgroundImageFix" result="effect1_dropShadow_4_209"/>
<feBlend mode="normal" in="SourceGraphic" in2="effect1_dropShadow_4_209" result="shape"/>
</filter>
</defs>
<style>
    svg { cursor: pointer; }
  </style>
</svg>
