<svg width="50" height="50" viewBox="0 0 50 50" fill="none" xmlns="http://www.w3.org/2000/svg">
<rect width="50" height="50" rx="15" fill="#222222"/>
<rect width="50" height="50" rx="15" fill="#222222"/>
<rect width="50" height="50" rx="15" fill="#222222"/>
<rect width="50" height="50" rx="15" fill="#222222"/>
<path d="M23.8404 36.8298L12.0604 12.8359C11.869 12.4531 12.1568 12 12.581 12H16.6628C16.8818 12 17.087 12.1239 17.1834 12.3154L25.7863 29.7224C26.5534 31.284 28.772 31.284 29.539 29.7224L38.1145 12.3291C38.2109 12.1377 38.4161 12.0138 38.635 12.0138H39.1418C39.4434 12.0138 39.6348 12.3291 39.4985 12.5894L27.5945 36.8298C26.8275 38.3901 24.6075 38.3901 23.8404 36.8298Z" fill="white"/>
<path opacity="0.1" d="M23.8405 36.83L17.1835 12.3294C17.0871 12.1242 16.8681 12.014 16.6905 12.014H12.5948C12.1431 12.014 11.8829 12.4657 12.0605 12.85L23.8405 36.83Z" fill="white"/>
<path opacity="0.1" d="M25.7873 29.7347L12.0614 12.8359C11.8975 12.4393 12.144 12.0413 12.5269 12H16.6776C16.9103 12.0137 17.088 12.1638 17.1706 12.3153L25.7873 29.7347Z" fill="white"/>
</svg>
